<svg width="48" height="162" viewBox="0 0 48 162" fill="none" xmlns="http://www.w3.org/2000/svg">
<path d="M24 0L24 162" stroke="#E7DEFE" stroke-width="2" stroke-dasharray="8 8"/>
<circle cx="24" cy="75" r="24" fill="#7C5CFC"/>
<path d="M18.0281 83.72H29.9081V81.32H21.7721L26.0921 76.712C27.2761 75.432 28.1481 74.336 28.7081 73.424C29.2841 72.496 29.5721 71.544 29.5721 70.568C29.5721 69.576 29.3321 68.704 28.8521 67.952C28.3881 67.2 27.7321 66.616 26.8841 66.2C26.0361 65.768 25.0441 65.552 23.9081 65.552C22.9321 65.552 22.0281 65.744 21.1961 66.128C20.3641 66.512 19.6601 67.056 19.0841 67.76C18.5081 68.448 18.1161 69.264 17.9081 70.208L20.4041 70.928C20.6441 70 21.0761 69.296 21.7001 68.816C22.3241 68.32 23.0681 68.072 23.9321 68.072C24.7801 68.072 25.4601 68.312 25.9721 68.792C26.5001 69.272 26.7641 69.936 26.7641 70.784C26.7641 71.312 26.6441 71.816 26.4041 72.296C26.1641 72.776 25.7641 73.336 25.2041 73.976C24.6441 74.6 23.8841 75.424 22.9241 76.448L18.0281 81.68V83.72Z" fill="white"/>
</svg>
