<svg width="48" height="48" viewBox="0 0 48 48" fill="none" xmlns="http://www.w3.org/2000/svg">
<circle cx="24" cy="24" r="24" fill="white"/>
<path d="M23.696 34.0082C22.736 34.0082 21.832 33.8322 20.984 33.4802C20.152 33.1282 19.432 32.6322 18.824 31.9922C18.232 31.3522 17.808 30.6002 17.552 29.7362L19.952 28.8242C20.272 29.6722 20.76 30.3282 21.416 30.7922C22.072 31.2562 22.832 31.4882 23.696 31.4882C24.4 31.4882 25.008 31.3522 25.52 31.0802C26.048 30.8082 26.456 30.4242 26.744 29.9282C27.048 29.4322 27.2 28.8322 27.2 28.1282C27.2 27.4402 27.048 26.8482 26.744 26.3522C26.456 25.8562 26.048 25.4802 25.52 25.2242C25.008 24.9682 24.4 24.8402 23.696 24.8402C23.408 24.8402 23.112 24.8642 22.808 24.9122C22.52 24.9602 22.264 25.0242 22.04 25.1042L21.416 23.7842L26.12 18.2402H18.512V15.8402H29.288V18.1202L24.68 23.6402L24.608 22.7282C25.68 22.7442 26.624 22.9842 27.44 23.4482C28.256 23.8962 28.888 24.5202 29.336 25.3202C29.8 26.1042 30.032 27.0162 30.032 28.0562C30.032 29.1762 29.76 30.1922 29.216 31.1042C28.672 32.0002 27.92 32.7122 26.96 33.2402C26.016 33.7522 24.928 34.0082 23.696 34.0082Z" fill="#1A202C"/>
</svg>
